<svg width="16" height="16" viewBox="0 0 16 16" fill="none" xmlns="http://www.w3.org/2000/svg">
<path d="M7.32955 1.3344C7.32955 2.0704 6.73275 2.6688 5.99515 2.6688C5.25755 2.6688 4.66075 2.072 4.66075 1.3344C4.66075 0.5968 5.26075 0 5.99675 0C6.73275 0 7.32955 0.5984 7.32955 1.3344ZM11.3935 12.256C11.136 12.1328 10.8288 12.2416 10.7056 12.4992C9.98875 13.9968 8.45275 14.9648 6.79195 14.9648C4.40155 14.9648 2.45755 13.0208 2.45755 10.6304C2.45755 9.2736 3.07515 8.0192 4.15355 7.1904C4.38075 7.016 4.42235 6.6928 4.24795 6.4656C4.07515 6.24 3.75035 6.1984 3.52475 6.3712C2.18875 7.3984 1.42395 8.9504 1.42395 10.632C1.42395 13.5904 3.83195 16 6.79195 16C8.84635 16 10.7488 14.8 11.6368 12.9456C11.76 12.688 11.6496 12.3792 11.3935 12.256ZM14.5024 12.6544L11.7215 8.1936C11.5887 7.9792 11.3264 7.9296 11.0448 7.9408H7.54395C7.40155 7.9408 7.28635 7.9248 7.28635 7.9072L7.28955 7.8752V7.3072C7.28955 7.1648 7.31195 7.0544 7.34075 7.056C7.35675 7.0576 7.37435 7.0592 7.39355 7.0592H10.448C10.792 7.0592 11.072 6.7808 11.072 6.4352C11.072 6.0912 10.7936 5.8112 10.448 5.8112H7.39355C7.37435 5.8112 7.35835 5.8128 7.34075 5.816C7.31195 5.8176 7.28955 5.7072 7.28955 5.5648V4.1056C7.28955 3.5504 6.83835 3.1008 6.28475 3.1008H6.00635C5.45275 3.1008 5.00315 3.5504 5.00315 4.1056V9.1536C5.00315 9.7072 5.45275 10.1584 6.00635 10.1584H10.8144C10.9568 10.1584 11.1344 10.2544 11.2144 10.3728C11.6976 11.1024 13.2448 13.44 13.2448 13.44C13.4304 13.7392 13.8656 13.808 14.2128 13.5904C14.56 13.3744 14.6896 12.9552 14.5024 12.6544Z" fill="#336CFB"/>
</svg>
