<svg width="16" height="16" viewBox="0 0 16 16" fill="none" xmlns="http://www.w3.org/2000/svg">
<g clip-path="url(#clip0_0_4224)">
<path d="M5.21126 4.46237C5.31846 4.68157 5.43366 4.87357 5.47846 5.10237C5.60326 5.73757 5.88966 6.30877 6.31846 6.78077C6.59046 7.07997 6.57446 7.38717 6.48166 7.69597C6.40166 7.96317 6.42566 8.15837 6.60326 8.36317C6.84006 8.63837 7.07686 8.91197 7.40486 9.08637C7.78406 9.28957 8.31526 9.25437 8.74406 8.91997C9.09446 8.64637 9.35686 8.29597 9.60006 7.92797C9.64326 7.86397 9.62566 7.80797 9.61286 7.74717C9.59686 7.67197 9.58246 7.59677 9.56646 7.52317C9.50086 7.22077 9.59046 6.98077 9.79686 6.74397C10.2097 6.26877 10.4849 5.71517 10.6129 5.09597C10.6593 4.87197 10.7777 4.68637 10.9025 4.48797C10.8993 4.56477 10.9025 4.64317 10.8913 4.71997C10.7729 5.51037 10.8625 6.29117 11.0033 7.06557C11.0625 7.38397 11.1665 7.69757 11.2945 7.99997C11.3697 8.17597 11.5489 8.17277 11.6865 8.22877C12.1841 8.42717 12.6673 8.65117 13.1249 8.93277C13.5393 9.18717 13.7489 9.57437 13.8961 10.0112C14.1265 10.6928 14.3281 11.3824 14.4657 12.0912C14.6161 12.8688 14.6753 13.6496 14.6305 14.44C14.6097 14.7856 14.3921 14.992 14.1025 15.1008C13.4161 15.3584 12.7089 15.5584 11.9889 15.7056C11.5649 15.792 11.1393 15.8576 10.7169 15.9392C10.3969 16.0016 10.0833 15.9936 9.76486 15.9952C8.92646 16.0016 8.08646 15.984 7.24806 16.0016C6.44166 16.0176 5.64966 15.9328 4.85606 15.784C4.03846 15.632 3.23206 15.4496 2.44486 15.1888C2.22246 15.1152 2.00326 15.032 1.78726 14.9408C1.45286 14.8 1.40006 14.4992 1.37606 14.1984C1.33926 13.7296 1.42406 13.2656 1.47366 12.8032C1.54086 12.1808 1.64806 11.5632 1.80166 10.9552C1.94566 10.384 2.12006 9.82077 2.43366 9.31997C2.68486 8.91837 3.09126 8.69757 3.52806 8.53757C3.89126 8.40637 4.25606 8.27997 4.61926 8.14717C4.70246 8.11677 4.76166 8.06397 4.80006 7.96797C5.01766 7.40957 5.14246 6.83517 5.19686 6.23677C5.24486 5.71837 5.26726 5.20477 5.19046 4.68797C5.18246 4.62237 5.16806 4.55197 5.21126 4.46237ZM7.56166 13.7136C7.56166 13.8608 7.56806 13.9824 7.56006 14.104C7.55206 14.2256 7.59046 14.2784 7.72006 14.272C7.91206 14.264 8.10406 14.264 8.29606 14.272C8.42726 14.2784 8.46086 14.2208 8.45766 14.1024C8.45126 13.872 8.46246 13.6416 8.45286 13.4112C8.44806 13.2736 8.48806 13.2144 8.63686 13.2208C8.86726 13.2304 9.09766 13.2176 9.32806 13.2256C9.45446 13.2304 9.50086 13.1792 9.49926 13.0576C9.49606 12.8656 9.49126 12.6736 9.50086 12.4832C9.50886 12.3472 9.44326 12.3216 9.32806 12.3232C9.11046 12.328 8.89286 12.3248 8.67526 12.328C8.51686 12.3312 8.44166 12.2704 8.45126 12.0992C8.46406 11.8768 8.45286 11.6512 8.45766 11.4272C8.45926 11.3216 8.42406 11.2784 8.31206 11.2816C8.11366 11.288 7.91526 11.2864 7.71686 11.2816C7.60486 11.28 7.55526 11.3168 7.55846 11.4368C7.56486 11.6672 7.55206 11.8976 7.56326 12.128C7.56966 12.2752 7.50246 12.3216 7.37126 12.3216C7.20486 12.3216 7.03846 12.3232 6.87206 12.3248C6.51526 12.3296 6.51526 12.3312 6.51686 12.6944C6.51846 13.224 6.51846 13.2208 7.04486 13.2256C7.20966 13.2272 7.41926 13.1536 7.52486 13.2608C7.63366 13.3648 7.54406 13.576 7.56166 13.7136ZM5.88486 3.73597C5.66726 3.73597 5.44966 3.73117 5.23206 3.73757C5.08646 3.74237 5.02726 3.68797 5.02246 3.53757C5.00966 3.16637 4.98406 2.79197 5.03526 2.42557C5.15846 1.55357 5.61926 0.57757 6.76806 0.22717C7.28486 0.0687698 7.80486 -0.0496302 8.33766 0.0191698C9.33926 0.14717 10.2209 0.51997 10.7105 1.47517C11.0257 2.08797 11.0241 2.76797 10.9969 3.44157C10.9953 3.50237 11.0049 3.56477 10.8897 3.54237C10.8001 3.52477 10.7857 3.64157 10.7713 3.70877C10.7489 3.81437 10.7185 3.83037 10.6177 3.77757C10.1809 3.54877 9.89446 3.19197 9.71846 2.74237C9.67046 2.61917 9.64966 2.59677 9.52646 2.68317C8.72806 3.23997 7.84006 3.55197 6.87526 3.67997C6.54566 3.72477 6.21606 3.73917 5.88486 3.73597Z" fill="#336CFB"/>
</g>
<defs>
<clipPath id="clip0_0_4224">
<rect width="16" height="16" fill="white"/>
</clipPath>
</defs>
</svg>
